<?xml version="1.0" encoding="iso-8859-1"?>
<!-- Generator: Adobe Illustrator 19.0.0, SVG Export Plug-In . SVG Version: 6.00 Build 0)  -->
<svg version="1.1" id="Layer_1" xmlns="http://www.w3.org/2000/svg" xmlns:xlink="http://www.w3.org/1999/xlink" x="0px" y="0px"
	 viewBox="0 0 512 512" style="enable-background:new 0 0 512 512;" xml:space="preserve">
<polygon style="fill:#91DC5A;" points="268.19,154.819 48.762,471.771 512,471.771 512,154.819 "/>
<polygon style="fill:#CCF7F9;" points="0,154.819 0,471.771 60.952,471.771 256,154.819 "/>
<polygon style="fill:#786145;" points="256,154.819 256,295.01 512,392.533 512,154.819 "/>
<polygon style="fill:#496E2D;" points="256,295.01 256,471.771 512,471.771 512,398.629 "/>
<polygon style="fill:#786145;" points="78.814,471.771 198.733,291.891 166.981,273.747 34.965,471.771 "/>
<polygon style="fill:#282017;" points="512,380.483 309.474,301.723 300.05,337.058 512,419.483 "/>
<path style="fill:#FF5023;" d="M256,40.229c-68.022,0-123.363,55.34-123.363,123.362c0,114.428,107.269,202.857,111.835,206.565
	L256,379.518l11.527-9.362c4.567-3.708,111.835-92.137,111.835-206.565C379.363,95.568,324.022,40.229,256,40.229z"/>
<path style="fill:#A2001D;" d="M256,40.229v339.289l11.527-9.362c4.567-3.708,111.835-92.137,111.835-206.565
	C379.363,95.568,324.022,40.229,256,40.229z"/>
<circle style="fill:#FFFFFF;" cx="256" cy="173.105" r="36.571"/>
<g>
</g>
<g>
</g>
<g>
</g>
<g>
</g>
<g>
</g>
<g>
</g>
<g>
</g>
<g>
</g>
<g>
</g>
<g>
</g>
<g>
</g>
<g>
</g>
<g>
</g>
<g>
</g>
<g>
</g>
</svg>
