<?xml version="1.0" encoding="iso-8859-1"?>
<!-- Generator: Adobe Illustrator 19.0.0, SVG Export Plug-In . SVG Version: 6.00 Build 0)  -->
<svg version="1.1" id="Capa_1" xmlns="http://www.w3.org/2000/svg" xmlns:xlink="http://www.w3.org/1999/xlink" x="0px" y="0px"
	 viewBox="0 0 512 512" style="enable-background:new 0 0 512 512;" xml:space="preserve">
<path style="fill:#E0230D;" d="M258.7,7.52C394.7,8.96,504.5,119.66,504.5,256S394.7,503.04,258.7,504.48L434.5,256L258.7,7.52z"/>
<path style="fill:#FF5440;" d="M258.7,7.52C372.6,9.24,464.5,119.83,464.5,256s-91.9,246.76-205.8,248.48
	c-0.9,0.01-1.8,0.02-2.7,0.02C118.76,504.5,7.5,393.24,7.5,256S118.76,7.5,256,7.5C256.9,7.5,257.8,7.51,258.7,7.52z"/>
<polygon style="fill:#C6E8FF;" points="421,316 391,316 361,256 391,196 421,196 "/>
<rect x="91" y="196" style="fill:#FFFFFF;" width="300" height="120"/>
<path d="M437.02,74.98C388.667,26.629,324.38,0,256,0S123.333,26.629,74.98,74.98C26.629,123.332,0,187.62,0,256
	s26.629,132.668,74.98,181.02C123.333,485.371,187.62,512,256,512s132.667-26.629,181.02-74.98C485.371,388.668,512,324.38,512,256
	S485.371,123.332,437.02,74.98z M256,497C123.112,497,15,388.888,15,256S123.112,15,256,15s241,108.112,241,241S388.888,497,256,497
	z"/>
<path d="M421,188.5H91c-4.142,0-7.5,3.357-7.5,7.5v120c0,4.143,3.358,7.5,7.5,7.5h63c4.142,0,7.5-3.357,7.5-7.5s-3.358-7.5-7.5-7.5
	H98.5v-105h315v105H184c-4.142,0-7.5,3.357-7.5,7.5s3.358,7.5,7.5,7.5h237c4.142,0,7.5-3.357,7.5-7.5V196
	C428.5,191.857,425.142,188.5,421,188.5z"/>
<g>
</g>
<g>
</g>
<g>
</g>
<g>
</g>
<g>
</g>
<g>
</g>
<g>
</g>
<g>
</g>
<g>
</g>
<g>
</g>
<g>
</g>
<g>
</g>
<g>
</g>
<g>
</g>
<g>
</g>
</svg>
