<svg height="512pt" viewBox="-86 0 512 512.001" width="512pt" xmlns="http://www.w3.org/2000/svg"><path d="m331.855469 169.675781c0 89.570313-162.179688 328.953125-162.179688 328.953125s-162.175781-239.382812-162.175781-328.953125c0-89.566406 72.609375-162.175781 162.175781-162.175781 89.570313 0 162.179688 72.609375 162.179688 162.175781zm0 0" fill="#d15573"/><path d="m37.5 169.675781c0-84.507812 64.640625-153.910156 147.175781-161.480469-4.9375-.453124-9.941406-.695312-15-.695312-89.566406 0-162.175781 72.609375-162.175781 162.175781 0 89.570313 162.175781 328.953125 162.175781 328.953125s5.71875-8.4375 15-22.730468c-40.171875-61.863282-147.175781-233.46875-147.175781-306.222657zm0 0" fill="#c21d44"/><path d="m234.441406 169.675781c0 35.769531-28.996094 64.765625-64.765625 64.765625s-64.765625-28.996094-64.765625-64.765625c0-35.765625 28.996094-64.761719 64.765625-64.761719s64.765625 28.996094 64.765625 64.761719zm0 0" fill="#96d1f3"/><path d="m134.910156 169.675781c0-30.601562 21.230469-56.230469 49.765625-63-4.816406-1.140625-9.832031-1.761719-15-1.761719-35.769531 0-64.765625 28.996094-64.765625 64.761719 0 35.769531 28.996094 64.765625 64.765625 64.765625 5.167969 0 10.183594-.621094 15-1.761718-28.535156-6.769532-49.765625-32.398438-49.765625-63.003907zm0 0" fill="#3ca6e6"/><path d="m189.675781 307.460938h-15v-15h15zm-25 0h-14.996093v-15h14.996093zm0 0" fill="#fff"/><path d="m177.175781 263.097656v-21.546875c33.871094-3.507812 60.867188-30.503906 64.375-64.375h21.546875v-15h-21.546875c-3.507812-33.867187-30.503906-60.867187-64.375-64.375v-21.546875h-15v21.546875c-33.867187 3.507813-60.867187 30.507813-64.375 64.375h-21.546875v15h21.546875c3.507813 33.871094 30.507813 60.867188 64.375 64.375v21.546875zm-64.257812-85.921875h19.589843v-15h-19.589843c3.363281-25.585937 23.671875-45.894531 49.257812-49.257812v19.589843h15v-19.589843c25.585938 3.363281 45.894531 23.671875 49.257813 49.257812h-19.589844v15h19.589844c-3.363282 25.585938-23.671875 45.898438-49.257813 49.261719v-19.589844h-15v19.589844c-25.585937-3.363281-45.894531-23.675781-49.257812-49.261719zm0 0"/><path d="m162.175781 162.175781h15v15h-15zm0 0"/><path d="m284.242188 322.257812c36.570312-69.921874 55.113281-121.253906 55.113281-152.582031 0-93.558593-76.117188-169.675781-169.679688-169.675781-93.558593 0-169.675781 76.117188-169.675781 169.675781 0 90.828125 156.792969 323.308594 163.46875 333.160157l6.207031 9.164062c35.660157-52.636719 75.148438-116.703125 105.082031-171.9375l-13.1875-7.144531c-35.691406 65.859375-76.578124 128.996093-91.890624 152.183593-29.585938-44.839843-154.679688-238.96875-154.679688-315.421874 0-85.292969 69.386719-154.679688 154.675781-154.679688 85.289063 0 154.679688 69.386719 154.679688 154.675781 0 28.472657-18.46875 78.832031-53.40625 145.632813zm0 0"/></svg>