<svg id="Capa_1" enable-background="new 0 0 512.066 512.066" height="512" viewBox="0 0 512.066 512.066" width="512" xmlns="http://www.w3.org/2000/svg"><g><g><path d="m452.879 504.566h-393.691c-19.226 0-34.812-15.586-34.812-34.812v-427.442c-.001-19.226 15.585-34.812 34.812-34.812h393.691c19.226 0 34.812 15.586 34.812 34.812v427.442c0 19.226-15.586 34.812-34.812 34.812z" fill="#d8ecfe"/></g><g><path d="m487.693 42.313v427.44c0 19.23-15.59 34.81-34.81 34.81h-20c19.22 0 34.81-15.58 34.81-34.81v-427.44c0-19.23-15.59-34.81-34.81-34.81h20c19.22 0 34.81 15.58 34.81 34.81z" fill="#c4e2ff"/></g><g><path d="m436.643 467.468h-361.22c-7.943 0-14.381-6.439-14.381-14.381v-394.107c0-7.943 6.439-14.381 14.381-14.381h361.22c7.943 0 14.381 6.439 14.381 14.381v394.107c.001 7.942-6.438 14.381-14.381 14.381z" fill="#8ac9fe"/></g><g><path d="m451.023 58.983v394.1c0 7.95-6.44 14.38-14.38 14.38h-20c7.94 0 14.38-6.43 14.38-14.38v-394.1c0-7.95-6.44-14.38-14.38-14.38h20c7.94 0 14.38 6.43 14.38 14.38z" fill="#60b7ff"/></g><g><path d="m328.817 192.124-68.143-96.064c-2.268-3.197-7.013-3.197-9.281 0l-68.143 96.064c-2.673 3.768.021 8.981 4.641 8.981h25.655c3.142 0 5.69 2.547 5.69 5.69v210.064c0 3.142 2.547 5.69 5.69 5.69h62.218c3.142 0 5.69-2.547 5.69-5.69v-210.064c0-3.142 2.547-5.69 5.69-5.69h25.655c4.617.001 7.311-5.213 4.638-8.981z" fill="#eef5f6"/></g><g><path d="m278.953 201.103h19.57c-3.14 0-5.69 2.55-5.69 5.69v210.07c0 3.14-2.55 5.69-5.69 5.69h-19.57c3.15 0 5.69-2.55 5.69-5.69v-210.07c0-3.14 2.55-5.69 5.69-5.69z" fill="#deecf1"/></g><g><path d="m324.173 201.103h-19.56c4.62 0 7.31-5.21 4.64-8.98l-63-88.81 5.14-7.25c2.27-3.2 7.01-3.2 9.28 0l68.14 96.06c2.68 3.77-.02 8.98-4.64 8.98z" fill="#deecf1"/></g><g><path d="m487.691 372.346c4.142 0 7.5-3.358 7.5-7.5v-322.533c0-23.332-18.981-42.313-42.312-42.313h-393.691c-23.332 0-42.313 18.981-42.313 42.313v427.441c0 23.331 18.981 42.313 42.313 42.313h393.691c23.331 0 42.313-18.981 42.313-42.313v-69.903c0-4.142-3.358-7.5-7.5-7.5s-7.5 3.358-7.5 7.5v69.903c0 15.06-12.252 27.313-27.313 27.313h-393.691c-15.06 0-27.313-12.252-27.313-27.313v-427.441c0-15.061 12.252-27.313 27.313-27.313h393.691c15.06 0 27.313 12.252 27.313 27.313v322.533c-.001 4.142 3.357 7.5 7.499 7.5z"/><path d="m436.644 37.098h-361.221c-12.065 0-21.881 9.816-21.881 21.881v394.107c0 12.065 9.816 21.881 21.881 21.881h361.22c12.065 0 21.881-9.816 21.881-21.881v-394.107c0-12.065-9.816-21.881-21.88-21.881zm6.88 415.989c0 3.794-3.087 6.881-6.881 6.881h-361.22c-3.794 0-6.881-3.087-6.881-6.881v-394.108c0-3.794 3.087-6.881 6.881-6.881h361.22c3.794 0 6.881 3.087 6.881 6.881z"/><path d="m266.791 91.72c-2.469-3.48-6.49-5.558-10.757-5.558 0 0 0 0-.001 0-4.267 0-8.289 2.078-10.758 5.558l-22.677 31.97c-2.396 3.378-1.601 8.06 1.778 10.457s8.06 1.6 10.457-1.778l21.201-29.888 64.639 91.125h-22.151c-7.272 0-13.189 5.917-13.189 13.189v208.254h-58.598v-208.254c0-7.272-5.917-13.189-13.189-13.189h-22.151l23.465-33.08c2.396-3.378 1.601-8.06-1.778-10.457-3.378-2.396-8.06-1.601-10.457 1.778l-25.492 35.937c-2.866 4.041-3.234 9.285-.96 13.686s6.764 7.136 11.718 7.136h23.844v208.253c0 7.273 5.917 13.19 13.189 13.19h62.219c7.272 0 13.189-5.917 13.189-13.19v-208.254h23.845c4.954 0 9.444-2.734 11.718-7.135s1.906-9.646-.96-13.686z"/></g></g></svg>