<svg id="Layer_1" height="512" viewBox="0 0 55 55" width="512" xmlns="http://www.w3.org/2000/svg" data-name="Layer 1"><path d="m27.5 3.5a16.87 16.87 0 0 0 -16.87 16.87c0 9.32 16.87 31.13 16.87 31.13s16.87-21.81 16.87-31.13a16.87 16.87 0 0 0 -16.87-16.87z" fill="#ffdb6a"/><path d="m44.37 20.37c0 9.31-16.87 31.13-16.87 31.13s-.54-.69-1.42-1.89c4.06-5.49 15.45-21.61 15.45-29.24a16.87 16.87 0 0 0 -15.45-16.81c.47 0 .94-.06 1.42-.06a16.87 16.87 0 0 1 16.87 16.87z" fill="#f2cc55"/><circle cx="27.5" cy="20.37" fill="#dbd8dd" r="11.32"/><path d="m36 12.86a11.31 11.31 0 0 0 -14.88 16.85 11.31 11.31 0 1 1 14.88-16.85z" fill="#b1b2b6"/><g fill="#556065"><path d="m27.5 25a.74.74 0 0 1 -.75-.75v-1.82a2.82 2.82 0 0 1 1.74-2.6 2.71 2.71 0 0 0 1.63-3.15 2.7 2.7 0 0 0 -5.32.64.75.75 0 0 1 -1.5 0 4.19 4.19 0 0 1 1.58-3.32 4.25 4.25 0 0 1 3.6-.8 4.15 4.15 0 0 1 3.1 3.1 4.22 4.22 0 0 1 -2.58 4.93 1.3 1.3 0 0 0 -.79 1.2v1.86a.75.75 0 0 1 -.71.71z"/><path d="m27.5 27.61a.75.75 0 0 1 -.75-.75v-.35a.75.75 0 0 1 1.5 0v.35a.76.76 0 0 1 -.75.75z"/><path d="m27.5 52.25a.79.79 0 0 1 -.6-.29c-.69-.9-17-22.13-17-31.59a17.62 17.62 0 0 1 35.24 0c0 9.46-16.33 30.69-17 31.59a.75.75 0 0 1 -.64.29zm0-48a16.14 16.14 0 0 0 -16.12 16.12c0 8 13.14 25.93 16.12 29.89 3-4 16.12-21.91 16.12-29.89a16.14 16.14 0 0 0 -16.12-16.12z"/><path d="m27.5 32.44a12.07 12.07 0 1 1 12.07-12.07 12.08 12.08 0 0 1 -12.07 12.07zm0-22.64a10.57 10.57 0 1 0 10.57 10.57 10.58 10.58 0 0 0 -10.57-10.57z"/></g></svg>